<svg xmlns="http://www.w3.org/2000/svg" width="28" height="28" viewBox="0 0 28 28" aria-labelledby="title desc" role="img">
<title id="title">Vimeo logo</title>
<desc id="desc">link to Vimeo channel</desc>
<path fill="#1ab7ea" d="M26.703 8.094q-0.156 3.687-5.187 10.172-5.203 6.734-8.781 6.734-2.219 0-3.75-4.109-0.688-2.5-2.063-7.531-1.125-4.094-2.453-4.094-0.281 0-1.984 1.188l-1.203-1.531q0.375-0.328 1.687-1.508t2.031-1.805q2.438-2.156 3.766-2.281 1.484-0.141 2.391 0.867t1.266 3.18q0.688 4.484 1.031 5.828 0.859 3.891 1.875 3.891 0.797 0 2.406-2.516 1.578-2.516 1.703-3.844 0.203-2.172-1.703-2.172-0.891 0-1.891 0.406 1.875-6.141 7.172-5.969 3.922 0.125 3.687 5.094z"></path>
</svg>
